<svg preserveAspectRatio="none" overflow="visible" style="display: block;" width="45.9687" height="93.2713" viewBox="0 0 45.9687 93.2713" fill="none" xmlns="http://www.w3.org/2000/svg">
<g id="Group">
<path id="Fill-15" fill-rule="evenodd" clip-rule="evenodd" d="M37.5256 28.3847L0.601538 40.4615C-1.48316 34.0035 2.02824 27.0668 8.44374 24.969L45.3678 12.8921C47.4519 19.3501 43.9411 26.2862 37.5256 28.3847Z" fill="#6C5E91"/>
<path id="Fill-17" fill-rule="evenodd" clip-rule="evenodd" d="M37.5256 68.3248L0.601538 80.4016C-1.48316 73.9436 2.02824 67.0069 8.44374 64.9091L45.3678 52.8322C47.4519 59.2902 43.9411 66.2263 37.5256 68.3248Z" fill="#6C5E91"/>
<path id="Fill-19" fill-rule="evenodd" clip-rule="evenodd" d="M0 56.5068C0 56.4744 0.000618421 56.442 0.000618421 56.4103C0.00123684 56.3972 0.00123684 56.3847 0.00123684 56.3717C0.0550395 51.2378 3.32339 46.483 8.44207 44.8084L39.5468 34.6353C41.6674 33.7133 42.9104 31.9827 42.9104 30.0878C42.9104 29.2617 42.7014 28.4848 42.3346 27.8081C43.7211 29.1889 44.7551 30.8834 45.3581 32.7347L45.3661 32.7322C45.7681 33.9779 45.9611 35.241 45.9666 36.4841C45.9666 36.5103 45.9672 36.5358 45.9672 36.562C45.9672 36.5943 45.9666 36.6261 45.9666 36.6584C45.966 36.6715 45.966 36.684 45.966 36.697C45.9122 41.8309 42.6445 46.5857 37.5252 48.2597L6.42045 58.4335C4.29988 59.356 3.05686 61.0854 3.05686 62.9809C3.05686 63.807 3.26588 64.5839 3.63322 65.2612C2.24611 63.8799 1.21211 62.1854 0.609145 60.334L0.601105 60.3365C0.199132 59.0908 0.00618421 57.8277 0.000618421 56.5846C0.000618421 56.5584 0 56.5329 0 56.5068Z" fill="#CF556D"/>
<path id="Fill-21" fill-rule="evenodd" clip-rule="evenodd" d="M8.44411 28.2832L38.8395 38.2248C41.3886 39.0465 42.9112 40.9414 42.9112 43.0393C42.9112 43.8654 42.7022 44.6417 42.3354 45.319C44.469 43.1943 45.7683 40.3276 45.9464 37.2891C45.947 37.2823 45.9476 37.2748 45.9476 37.268C45.9513 37.2051 45.9544 37.1416 45.9569 37.0787C45.9581 37.0451 45.9594 37.0115 45.9606 36.9779C45.9619 36.9274 45.9637 36.877 45.965 36.8272C45.9668 36.7394 45.968 36.6523 45.968 36.5651C45.9711 31.3796 42.6898 26.5563 37.526 24.8668L0.601909 12.79C-1.48217 19.2486 2.02861 26.1847 8.44411 28.2832Z" fill="#EC6C81"/>
<path id="Fill-23" fill-rule="evenodd" clip-rule="evenodd" d="M37.525 64.7916L7.12959 54.85C4.58046 54.0283 3.05791 52.1333 3.05791 50.0348C3.05791 49.2094 3.26693 48.4331 3.63366 47.7558C1.5001 49.8804 0.200801 52.7471 0.0226961 55.7856C0.0220776 55.7925 0.0220776 55.8 0.0214592 55.8068C0.0177487 55.8697 0.0146566 55.9332 0.0121829 55.996C0.0109461 56.0297 0.00970921 56.0633 0.00847237 56.0969C0.00723553 56.1473 0.00538026 56.1971 0.00414342 56.2475C0.00228816 56.3353 0.00104913 56.4225 0.00104913 56.5096C-0.00204079 61.6952 3.2793 66.5184 8.44312 68.2073L45.3672 80.2842C47.4519 73.8262 43.9405 66.8901 37.525 64.7916Z" fill="#EC6C81"/>
<path id="Fill-25" fill-rule="evenodd" clip-rule="evenodd" d="M45.9685 56.608C45.9685 56.5756 45.9679 56.5439 45.9679 56.5115C45.9679 56.499 45.9679 56.486 45.9672 56.4729C45.9141 51.339 42.6451 46.5842 37.5264 44.9103L6.42168 34.7365C4.30174 33.8145 3.05871 32.0846 3.05871 30.189C3.05871 29.3629 3.26712 28.5866 3.63446 27.9093C2.24734 29.2901 1.21334 30.9846 0.610382 32.8359L0.602342 32.8335C0.200368 34.0791 0.00742105 35.3422 0.00247368 36.5854C0.00185526 36.6115 0.00123684 36.6377 0.00123684 36.6632C0.00123684 36.6955 0.00185526 36.7273 0.00247368 36.7597C0.00247368 36.7727 0.00247368 36.7858 0.00247368 36.7983C0.0562763 41.9322 3.32463 46.6869 8.44392 48.3615L39.5486 58.5347C41.6686 59.4572 42.9116 61.1872 42.9116 63.0822C42.9116 63.9082 42.7026 64.6851 42.3359 65.3624C43.723 63.9811 44.7564 62.2866 45.3599 60.4352L45.3674 60.4383C45.7693 59.192 45.9629 57.929 45.9679 56.6858C45.9679 56.6597 45.9685 56.6341 45.9685 56.608Z" fill="#8270A5"/>
<path id="Fill-27" fill-rule="evenodd" clip-rule="evenodd" d="M15.7718 7.26103C15.7718 3.25078 19.0012 0 22.9851 0C26.969 0 30.1984 3.25078 30.1984 7.26103C30.1984 11.2713 26.969 14.5221 22.9851 14.5221C19.0012 14.5221 15.7718 11.2713 15.7718 7.26103Z" fill="#8270A5"/>
<path id="Fill-29" fill-rule="evenodd" clip-rule="evenodd" d="M15.7718 86.0103C15.7718 82.0001 19.0012 78.7493 22.9851 78.7493C26.969 78.7493 30.1984 82.0001 30.1984 86.0103C30.1984 90.0206 26.969 93.2713 22.9851 93.2713C19.0012 93.2713 15.7718 90.0206 15.7718 86.0103Z" fill="#EC6C81"/>
</g>
</svg>
